<?xml version="1.0" standalone="no"?>
<!DOCTYPE svg PUBLIC "-//W3C//DTD SVG 20010904//EN"
 "http://www.w3.org/TR/2001/REC-SVG-20010904/DTD/svg10.dtd">
<svg version="1.0" xmlns="http://www.w3.org/2000/svg"
 width="700.000000pt" height="700.000000pt" viewBox="0 0 700.000000 700.000000"
 preserveAspectRatio="xMidYMid meet">
<metadata>
Created by potrace 1.11, written by Peter Selinger 2001-2013
</metadata>
<g transform="translate(0.000000,700.000000) scale(0.100000,-0.100000)"
fill="#000000" stroke="none">
<path d="M3279 6676 c-2 -2 -35 -6 -74 -9 -82 -7 -233 -26 -255 -32 -8 -2 -30
-7 -48 -10 -74 -12 -214 -48 -339 -85 -117 -36 -175 -57 -338 -125 -46 -19
-215 -103 -295 -148 -133 -73 -383 -248 -489 -341 -414 -364 -697 -757 -894
-1241 -66 -161 -148 -441 -172 -587 -3 -18 -10 -55 -15 -83 -9 -49 -24 -178
-35 -300 -3 -33 -5 -121 -5 -195 1 -237 12 -359 56 -625 17 -102 120 -470 145
-515 5 -8 20 -46 35 -85 94 -247 300 -590 494 -825 98 -118 296 -316 413 -413
101 -84 129 -104 277 -206 329 -224 774 -407 1160 -475 19 -4 44 -8 55 -10 21
-4 78 -13 130 -21 37 -5 127 -14 220 -20 128 -9 420 -4 515 10 19 2 60 7 90
10 30 4 62 8 70 10 8 2 35 7 60 10 107 15 325 69 460 114 418 140 793 358
1120 651 297 265 536 576 713 925 49 95 117 243 117 252 0 3 7 19 14 36 47
102 146 454 170 607 27 165 34 235 42 408 l7 142 -24 1 c-419 11 -701 81 -939
234 -282 180 -479 465 -610 880 -12 39 -24 77 -27 85 -3 8 -7 20 -8 25 -1 6
-14 53 -28 105 -26 95 -86 331 -92 361 -7 35 -87 337 -106 404 -126 424 -274
673 -504 847 -220 166 -468 234 -866 236 -108 0 -198 -1 -200 -2z"/>
</g>
</svg>
