<svg xmlns="http://www.w3.org/2000/svg" viewBox="0 0 24 24"><title>Artboard 1</title><path d="M17.8,9.19h0L17.22,9l.09-.39c.44-2.13.15-3.84-.83-4.41s-2.47,0-4,1.38A5.92,5.92,0,0,0,12,6l-.3-.28c-1.63-1.44-3.25-2-4.23-1.48S6.26,6.38,6.66,8.4c0,.2.08.39.13.59l-.67.21C4.22,9.87,3,10.91,3,12s1.31,2.24,3.29,2.92l.49.15c0,.21-.1.42-.14.64-.38,2-.09,3.55.85,4.09s2.59,0,4.17-1.39L12,18c.16.15.32.3.49.44,1.53,1.32,3,1.85,4,1.31s1.27-2.25.87-4.3c0-.16-.07-.32-.11-.48l.33-.11C19.66,14.22,21,13.11,21,12S19.74,9.85,17.8,9.19ZM13,6.15C14.29,5,15.53,4.54,16.1,4.87h0c.6.35.84,1.75.46,3.58,0,.12-.06.24-.08.36a19,19,0,0,0-2.41-.38,20.71,20.71,0,0,0-1.52-1.9ZM8.31,12.91c.17.31.34.62.52.93s.36.62.56.92a15.16,15.16,0,0,1-1.66-.27C7.89,14,8.09,13.45,8.31,12.91Zm0-1.81Q8,10.31,7.74,9.54c.52-.11,1.06-.2,1.63-.28-.19.3-.37.6-.55.91Zm.41.9c.24-.49.49-1,.77-1.45h0q.4-.71.87-1.38c.54,0,1.09-.07,1.64-.07s1.11,0,1.64.07q.46.67.87,1.38T15.29,12c-.25.5-.5,1-.78,1.46h0c-.27.47-.56.94-.86,1.39q-.81.06-1.65.06c-.56,0-1.1,0-1.63-.05-.31-.46-.6-.92-.88-1.4S9,12.5,8.72,12Zm6.46,1.83c.18-.31.35-.63.52-.95h0a16.68,16.68,0,0,1,.6,1.58,15.64,15.64,0,0,1-1.67.29C14.82,14.45,15,14.14,15.18,13.83Zm.51-2.73c-.16-.31-.34-.63-.52-.94h0c-.17-.3-.35-.6-.54-.89a16,16,0,0,1,1.64.28C16.11,10.05,15.92,10.57,15.69,11.1ZM12,7.08c.35.39.71.82,1.06,1.28q-1.07,0-2.13,0C11.29,7.9,11.65,7.47,12,7.08ZM7.86,4.89c.6-.35,1.94.15,3.34,1.4l.27.24a18.92,18.92,0,0,0-1.53,1.9,19,19,0,0,0-2.41.37l-.12-.55h0C7.07,6.52,7.3,5.22,7.86,4.89ZM7,14.31l-.44-.14a6.44,6.44,0,0,1-2.1-1.12A1.56,1.56,0,0,1,3.77,12c0-.65,1-1.49,2.61-2.05L7,9.73A18.41,18.41,0,0,0,7.87,12,19.77,19.77,0,0,0,7,14.31Zm4.17,3.5a6.64,6.64,0,0,1-2,1.26h0a1.65,1.65,0,0,1-1.27.05c-.56-.33-.8-1.59-.48-3.29,0-.2.08-.4.13-.59a18.67,18.67,0,0,0,2.43.35,19.23,19.23,0,0,0,1.54,1.9C11.38,17.6,11.27,17.71,11.15,17.81Zm.88-.87c-.36-.39-.73-.83-1.08-1.29l1.05,0c.37,0,.73,0,1.09,0A16.48,16.48,0,0,1,12,16.94ZM16.7,18a1.6,1.6,0,0,1-.59,1.12c-.57.32-1.78-.1-3.09-1.23-.15-.13-.3-.26-.45-.41a18.45,18.45,0,0,0,1.51-1.91,18.93,18.93,0,0,0,2.44-.38l.09.44h0A6.47,6.47,0,0,1,16.7,18Zm.65-3.84h0l-.3.1A19.3,19.3,0,0,0,16.14,12,17.24,17.24,0,0,0,17,9.74l.54.17c1.67.58,2.68,1.42,2.68,2.07S19.13,13.58,17.35,14.17Z"/><path d="M12,10.38A1.61,1.61,0,1,1,10.39,12,1.61,1.61,0,0,1,12,10.38"/></svg>